<?xml version="1.0" standalone="no"?>
<!DOCTYPE svg PUBLIC "-//W3C//DTD SVG 20010904//EN"
 "http://www.w3.org/TR/2001/REC-SVG-20010904/DTD/svg10.dtd">
<svg version="1.0" xmlns="http://www.w3.org/2000/svg"
 width="260.000000pt" height="260.000000pt" viewBox="0 0 260.000000 260.000000"
 preserveAspectRatio="xMidYMid meet">
<metadata>
Created by potrace 1.11, written by Peter Selinger 2001-2013
</metadata>
<g transform="translate(0.000000,260.000000) scale(0.100000,-0.100000)"
fill="#000000" stroke="none">
<path d="M0 1300 l0 -1300 1300 0 1300 0 0 1300 0 1300 -1300 0 -1300 0 0
-1300z m1225 791 c203 -25 334 -98 376 -208 23 -61 30 -132 19 -195 -33 -178
-170 -292 -393 -323 -26 -4 -49 -10 -52 -14 -2 -4 24 -13 58 -20 91 -18 199
-73 241 -123 62 -72 71 -109 121 -475 8 -62 20 -122 27 -133 27 -44 73 -35
140 28 27 25 28 25 48 7 11 -10 20 -21 20 -25 0 -3 -19 -26 -42 -49 -61 -62
-112 -81 -214 -81 -137 0 -202 43 -237 155 -20 62 -34 140 -42 225 -20 216
-56 350 -109 408 -39 44 -77 52 -242 52 l-154 0 0 -380 0 -379 88 -3 c82 -3
87 -4 90 -25 2 -14 -2 -23 -10 -23 -251 -3 -614 2 -620 8 -5 5 -6 16 -2 25 5
14 21 17 95 17 l89 0 0 745 0 745 -84 0 c-93 0 -121 14 -90 45 15 15 52 16
403 12 212 -2 427 -9 476 -16z m1100 -1341 c25 0 75 -51 86 -90 17 -55 4 -104
-37 -145 -30 -31 -41 -35 -85 -35 -60 0 -93 20 -120 71 -23 45 -24 78 -5 123
21 51 90 92 134 80 8 -2 20 -4 27 -4z"/>
<path d="M792 1713 l3 -338 80 -3 c109 -4 229 14 292 44 102 49 154 159 154
326 0 139 -33 215 -114 262 -57 33 -137 46 -289 46 l-128 0 2 -337z"/>
</g>
</svg>
